<svg fill="none" height="132" viewBox="0 0 627 132" width="627" xmlns="http://www.w3.org/2000/svg"><g clip-rule="evenodd" fill-rule="evenodd"><path d="m74.6747 17.6949c-23.4377 0-56.0499 28.9195-56.0499 57.3913 0 23.8232 22.3167 39.2188 56.8523 39.2188 13.6526 0 58.1979-2.83 58.1979-39.2188 0-25.8347-27.226-57.3913-59.0003-57.3913zm.8024 113.8271c-44.5921 0-74.552295-22.681-74.552295-56.4358 0-32.5781 35.765695-74.608661 73.749895-74.608661 38.7103 0 76.7003 36.954261 76.7003 74.608661 0 34.8108-29.081 56.4358-75.8979 56.4358z" fill="#4bcfa8"/><path d="m62.9527 69.2154c0 6.0404-5.0357 10.9388-11.2454 10.9388s-11.2454-4.8984-11.2454-10.9388 5.0357-10.9388 11.2454-10.9388 11.2454 4.8984 11.2454 10.9388z" fill="#4bcfa8"/><path d="m111.837 69.2154c0 6.0404-5.035 10.9388-11.245 10.9388-6.2097 0-11.2424-4.8984-11.2424-10.9388s5.0327-10.9388 11.2424-10.9388c6.21 0 11.245 4.8984 11.245 10.9388z" fill="#4bcfa8"/><g fill="#353a40"><path d="m258.043 68.0079v-.2447c0-14.9245-10.79-27.3542-25.996-27.3542-15.209 0-25.75 12.185-25.75 27.1021v.2521c0 14.9171 10.789 27.3504 25.995 27.3504 15.203 0 25.751-12.185 25.751-27.1057zm-71.493 0v-.2447c0-24.7444 19.253-45.0108 45.742-45.0108 26.485 0 45.49 20.018 45.49 44.7587v.2521c0 24.737-19.249 45.0038-45.735 45.0038-26.485 0-45.497-20.0147-45.497-44.7591z"/><path d="m284.946 97.63 11.097-13.2026c7.683 6.298 15.73 10.2956 25.489 10.2956 7.679 0 12.312-3.0298 12.312-7.9953v-.2419c0-4.7235-2.924-7.143-17.192-10.7758-17.194-4.3624-28.295-9.0858-28.295-25.9213v-.2419c0-15.3802 12.439-25.5566 29.877-25.5566 12.443 0 23.049 3.8785 31.71 10.7831l-9.759 14.044c-7.559-5.2038-14.999-8.3527-22.191-8.3527-7.199 0-10.977 3.2681-10.977 7.3885v.2383c0 5.5721 3.658 7.3886 18.416 11.1442 17.315 4.4815 27.071 10.6567 27.071 25.4338v.2455c0 16.8351-12.926 26.2791-31.339 26.2791-12.93 0-25.98-4.478-36.219-13.564z"/><path d="m370.519 23.9902h18.51v38.1232l34.136-38.1232h22.36l-34.258 36.9978 35.817 50.206h-22.238l-26.08-37.1244-9.737 10.4631v26.6613h-18.51z"/><path d="m507.671 74.9499-11.289-28.0782-11.289 28.0782zm-19.664-50.9597h17.235l36.422 87.2038h-19.548l-7.767-19.4186h-35.934l-7.767 19.4186h-19.06z"/><path d="m589.432 67.0727c9.314 0 14.655-4.8761 14.655-12.0632v-.2434c0-8.0445-5.715-12.1867-15.029-12.1867h-19.004v24.4933zm-38.507-41.4326h39.747c11.056 0 19.626 3.0485 25.341 8.655 4.844 4.7489 7.452 11.4527 7.452 19.4972v.2398c0 13.7709-7.574 22.4258-18.634 26.4445l21.245 30.4664h-22.363l-18.629-27.2944h-15.03v27.2944h-19.129z"/></g></g></svg>