<svg fill="none" height="43" viewBox="0 0 147 43" width="147" xmlns="http://www.w3.org/2000/svg" xmlns:xlink="http://www.w3.org/1999/xlink"><linearGradient id="a" gradientUnits="userSpaceOnUse" x1="8.98296" x2="29.1368" y1="3.46774" y2="40.8574"><stop offset="0" stop-color="#e0146a"/><stop offset=".494792" stop-color="#7a00b4"/><stop offset="1" stop-color="#5ca3ef"/></linearGradient><clipPath id="b"><path d="m0 0h42.8417v43h-42.8417z"/></clipPath><g clip-path="url(#b)"><path d="m42.8413 13.501v-3.78842c-.003-2.57496-1.0237-5.04402-2.8377-6.8648-1.8141-1.82077-4.2733-2.84478859-6.8388-2.84778h-23.48782c-2.56548.00299141-5.02506 1.02701-6.83913 2.84778-1.81407 1.82078-2.83432029 4.28984-2.83730068 6.8648v13.53882l4.73669068-2.3558v-11.18302c.00149-1.31438.52243-2.57442 1.4485-3.50375.92606-.92934 2.1817-1.45257 3.49124-1.45385h23.48782c1.3095.00128 2.565.52449 3.4909 1.45385s1.4464 2.18944 1.4477 3.50375v.83732l-38.10285068 18.9497v3.7876c.00276753 2.5751 1.02281068 5.0439 2.83691068 6.8648 1.81409 1.821 4.2739 2.8448 6.83952 2.8478h23.48782c2.5657-.003 5.0251-1.0268 6.8392-2.8478 1.8141-1.8209 2.8345-4.2897 2.8373-6.8648v-13.5341l-4.7379 2.3559v11.1822c-.0013 1.3143-.5218 2.5742-1.4477 3.5037s-2.1813 1.4524-3.4909 1.4539h-23.48782c-1.30962-.0015-2.5652-.5244-3.49124-1.4539s-1.44701-2.1893-1.4485-3.5037v-.8366z" fill="url(#a)"/></g><g fill="#fff"><path d="m56.7898 36.9563 12.5628-15.4827 2.222-2.4875-3.3757.0428h-11.5373v-1.8442h17.3059v1.6727l-12.1782 15.0967-2.5638 2.8735 3.8457-.0429h11.409v1.8442h-17.6904z"/><path d="m95.2533 27.3922c0 .486-.0285.9578-.0855 1.4153h-16.964c.1424 2.6305.9116 4.6891 2.3074 6.1759 1.4244 1.4582 3.3188 2.1873 5.6832 2.1873 1.6807 0 3.1193-.3431 4.3158-1.0293 1.2249-.6862 2.108-1.6583 2.6493-2.9164l1.7947.9435c-.7977 1.5726-1.9372 2.7878-3.4185 3.6456-1.4813.8291-3.2617 1.2437-5.3413 1.2437-3.1621 0-5.6404-.9864-7.4351-2.9593-1.7662-1.9728-2.6493-4.7034-2.6493-8.1917 0-3.4882.8546-6.2188 2.5638-8.1916 1.7377-1.9729 4.1591-2.9593 7.2642-2.9593 2.9057 0 5.1847.9721 6.8369 2.9164 1.6522 1.9442 2.4784 4.5175 2.4784 7.7199zm-9.3153-8.7493c-2.3074 0-4.1306.7292-5.4695 2.1874-1.3389 1.4296-2.0938 3.4453-2.2647 6.0472h15.0411c-.1424-2.5733-.8546-4.589-2.1365-6.0472-1.2534-1.4582-2.9769-2.1874-5.1704-2.1874z"/><path d="m108.183 16.7559c1.14 0 2.037.243 2.692.7291l-.555 2.0157c-.655-.5146-1.567-.772-2.735-.772-1.082 0-2.108.3431-3.077 1.0293-.94.6577-1.709 1.6012-2.307 2.8307-.57 1.2009-.855 2.5447-.855 4.0315v12.0087h-2.1362v-21.4442h1.7952l.256 4.3747c.598-1.5154 1.481-2.6877 2.649-3.5169 1.197-.8578 2.621-1.2866 4.273-1.2866z"/><path d="m120.982 16.7559c3.162 0 5.64 1.0007 7.435 3.0021 1.823 1.9729 2.735 4.6892 2.735 8.1488 0 3.4597-.912 6.1903-2.735 8.1917-1.795 1.9729-4.273 2.9593-7.435 2.9593s-5.655-.9864-7.478-2.9593c-1.795-2.0014-2.692-4.732-2.692-8.1917 0-3.4596.897-6.1759 2.692-8.1488 1.823-2.0014 4.316-3.0021 7.478-3.0021zm0 1.8442c-2.507 0-4.473.8291-5.897 2.4875-1.424 1.6583-2.137 3.9314-2.137 6.8192 0 2.8879.713 5.1609 2.137 6.8193 1.424 1.6583 3.39 2.4875 5.897 2.4875s4.472-.8292 5.897-2.4875c1.424-1.6584 2.136-3.9314 2.136-6.8193 0-2.8878-.712-5.1609-2.136-6.8192-1.425-1.6584-3.39-2.4875-5.897-2.4875z"/><path d="m57.7339 4.58074v2.82957h3.5046v.52152h-3.5046v3.46207h-.5527v-7.32359h4.9749v.51043z"/><path d="m64.0796 11.3939h-.5528v-7.32359h.5528z"/><path d="m71.8716 11.3939h-.6854l-3.8694-5.74791-.5417-.97648h-.0111l.0332.921v5.80339h-.5307v-7.32359h.6965l3.8584 5.7368.5527.98759-.0221-.92101v-5.80338h.5196z"/><path d="m78.1052 9.09695h-3.4935l-.9066 2.29695h-.5859l2.9186-7.32359h.6523l2.9186 7.32359h-.5859zm-.199-.51043-1.2714-3.19575-.2653-.77674h-.0111l-.2653.75455-1.2714 3.21794z"/><path d="m86.4631 11.3939h-.6854l-3.8694-5.74791-.5417-.97648h-.0111l.0332.921v5.80339h-.5307v-7.32359h.6965l3.8584 5.7368.5527.98759-.0221-.92101v-5.80338h.5196z"/><path d="m93.6143 10.8835v.5104h-5.6383v-.4883l4.8091-6.32486h-4.7096v-.51043h5.3619v.48824l-4.8091 6.32495z"/><path d="m100.256 10.8835v.5104h-5.1628v-7.32359h4.9858v.51043h-4.433v2.82957h3.5046v.52152h-3.5046v2.95167z"/><path d="m107.357 11.3939h-.685l-3.87-5.74791-.541-.97648h-.012l.034.921v5.80339h-.531v-7.32359h.696l3.859 5.7368.553.98759-.022-.92101v-5.80338h.519z"/><path d="m109.611 10.484c.147 0 .265.0481.353.1442.096.0888.144.2072.144.3551 0 .148-.048.27-.144.3662-.088.0888-.206.1332-.353.1332-.148 0-.269-.0444-.365-.1332-.089-.0962-.133-.2182-.133-.3662 0-.1479.044-.2663.133-.3551.096-.0961.217-.1442.365-.1442z"/><path d="m117.468 11.3939h-.685l-3.87-5.74791-.541-.97648h-.011l.033.921v5.80339h-.531v-7.32359h.697l3.858 5.7368.553.98759-.022-.92101v-5.80338h.519z"/><path d="m124.818 10.8835v.5104h-5.163v-7.32359h4.986v.51043h-4.433v2.82957h3.505v.52152h-3.505v2.95167z"/><path d="m131.289 4.58074h-2.664v6.81316h-.553v-6.81316h-2.664v-.51043h5.881z"/></g></svg>