<?xml version="1.0" encoding="UTF-8"?>
<svg id="Ebene_1" data-name="Ebene 1" xmlns="http://www.w3.org/2000/svg" xmlns:xlink="http://www.w3.org/1999/xlink" viewBox="0 0 275 150">
  <defs>
    <style>
      .cls-1, .cls-2 {
        fill: none;
      }

      .cls-3 {
        fill: #e1dcca;
      }

      .cls-2 {
        stroke: #1d1d1b;
        stroke-miterlimit: 1;
        stroke-width: .5px;
      }

      .cls-4 {
        fill: #1d1d1b;
      }

      .cls-5 {
        isolation: isolate;
      }

      .cls-6 {
        fill: #373a36;
      }

      .cls-7 {
        fill: #04070b;
      }

      .cls-8 {
        clip-path: url(#clippath);
      }
    </style>
    <clipPath id="clippath">
      <rect class="cls-1" x="10.57" y="118.01" width="21.18" height="21.18"/>
    </clipPath>
  </defs>
  <path class="cls-6" d="M230.75,26.69c-1.52,0-2.74-1.25-2.74-2.77,0-.05,0-.1,0-.15-.09-1.52,1.06-2.82,2.58-2.91.05,0,.1,0,.15,0,1.54-.01,2.81,1.23,2.82,2.78v.14c.07,1.54-1.14,2.85-2.68,2.91h-.14M231.27,18.18c-1.19-.04-2.35.47-3.11,1.39v-5.07h-2.85v14.58h2.8v-1.18c.77.96,1.95,1.5,3.18,1.45,2.92,0,5.15-2.4,5.15-5.59s-2.22-5.59-5.15-5.59M210.5,21h-3.2v3.89c0,1.33.7,1.81,1.59,1.81.71-.06,1.4-.29,2-.69l1.05,2.24c-1.02.74-2.26,1.13-3.52,1.12-2.97,0-3.98-1.87-3.98-4.62v-9.44h2.86v3.15h3.2v2.55h0ZM252.86,29.08h-2.86v-14.58h2.86v14.58ZM240.61,22.77h4.71c-.12-1.3-1.27-2.26-2.57-2.14-1.14.11-2.03,1-2.14,2.14M248.18,23.75c0,.32-.02.65-.06.97h-7.53c.19,1.34,1.38,2.31,2.73,2.21.98,0,1.93-.35,2.68-.97l1.68,1.84c-1.26,1.09-2.9,1.65-4.56,1.57-2.9.15-5.36-2.07-5.52-4.97,0-.2,0-.39,0-.59,0-3.34,2.19-5.62,5.37-5.62s5.15,2.27,5.16,5.58M215.15,23.75c-.09,1.56,1.1,2.9,2.66,2.99,1.56.09,2.9-1.1,2.99-2.66,0-.11,0-.22,0-.33.09-1.56-1.1-2.9-2.66-2.99-1.56-.09-2.9,1.1-2.99,2.66,0,.11,0,.22,0,.33M223.73,23.75c0,3.17-2.57,5.75-5.75,5.75s-5.75-2.57-5.75-5.75,2.57-5.75,5.75-5.75,5.75,2.57,5.75,5.75M202.11,22.28v6.81h-2.86v-5.83c0-1.54-.77-2.38-2.07-2.38-1.2-.04-2.21.9-2.25,2.1,0,.1,0,.19,0,.28v5.83h-2.87v-10.63h2.78v1.26c.7-1.02,1.89-1.6,3.12-1.54,2.18-.11,4.04,1.58,4.14,3.77,0,.11,0,.22,0,.34M181.96,23.76c-.09,1.56,1.1,2.9,2.66,2.99,1.56.09,2.9-1.1,2.99-2.66,0-.11,0-.22,0-.33.09-1.56-1.1-2.9-2.66-2.99-1.56-.09-2.9,1.1-2.99,2.66,0,.11,0,.22,0,.33M190.53,23.76c.04,3.05-2.4,5.56-5.45,5.6h-.29c-3.04.12-5.61-2.24-5.73-5.29,0-.1,0-.21,0-.31-.04-3.05,2.38-5.55,5.43-5.6h.31c3.05-.12,5.61,2.26,5.73,5.3,0,.1,0,.19,0,.29M174.65,29.08h-3.82l-5.48-14.58h3.28l4.14,11.53,4.17-11.53h3.2l-5.48,14.58h0Z"/>
  <g>
    <g class="cls-5">
      <g class="cls-5">
        <path class="cls-4" d="M31.49,99.64c0,.86-.51,1.25-1.16,1.25s-1.15-.4-1.15-1.17v-.3h.7v.33c0,.32.17.48.46.48s.46-.16.46-.51v-2.67h.7v2.6Z"/>
      </g>
      <g class="cls-5">
        <path class="cls-4" d="M32.61,99.62c.01.45.33.67.71.67.26,0,.51-.11.59-.37h.61c-.12.62-.67.95-1.23.95-.67,0-1.33-.45-1.33-1.43s.63-1.44,1.33-1.44,1.24.45,1.24,1.36v.27h-1.92ZM32.62,99.13h1.26c0-.37-.26-.57-.6-.57-.31,0-.6.17-.66.57Z"/>
      </g>
      <g class="cls-5">
        <path class="cls-4" d="M36.46,100.8h-.44c-.52,0-.85-.16-.85-.9v-1.26h-.51v-.6h.51v-.62l.67-.19v.81h.55v.6h-.55v1.29c0,.17.04.28.28.28h.34v.59Z"/>
      </g>
      <g class="cls-5">
        <path class="cls-4" d="M39.04,100.8h-2.33v-.58l1.48-1.6h-1.46v-.58h2.31v.58l-1.49,1.6h1.48v.58Z"/>
      </g>
      <g class="cls-5">
        <path class="cls-4" d="M41.06,100.8h-.44c-.52,0-.85-.16-.85-.9v-1.26h-.51v-.6h.51v-.62l.67-.19v.81h.55v.6h-.55v1.29c0,.17.04.28.28.28h.34v.59Z"/>
      </g>
      <g class="cls-5">
        <path class="cls-4" d="M42.76,96.91h.71v.76h-.71v-.76ZM42.78,100.8h.67v-2.76h-.67v2.76Z"/>
      </g>
      <g class="cls-5">
        <path class="cls-4" d="M46.49,99.02v1.78h-.67v-1.72c0-.31-.17-.5-.49-.5-.38,0-.61.28-.61.73v1.49h-.67v-2.76h.66v.4c.16-.25.38-.45.84-.45.63,0,.93.37.93,1.03Z"/>
      </g>
      <g class="cls-5">
        <path class="cls-4" d="M48.14,97.57c-.24,0-.28.11-.28.28v.18h.51v.6h-.51v2.16h-.67v-2.16h-.41v-.6h.41v-.15c0-.74.33-.9.85-.9h.4v.59h-.3Z"/>
      </g>
      <g class="cls-5">
        <path class="cls-4" d="M51.25,99.42c0,.9-.58,1.44-1.35,1.44s-1.35-.54-1.35-1.44.58-1.44,1.35-1.44,1.35.54,1.35,1.44ZM49.23,99.42c0,.56.31.82.68.82.4,0,.66-.3.66-.82,0-.56-.31-.82-.68-.82-.4,0-.66.3-.66.82Z"/>
      </g>
      <g class="cls-5">
        <path class="cls-4" d="M53.27,98.65h-.17c-.47,0-.72.26-.72.8v1.35h-.67v-2.76h.66v.4c.14-.3.4-.43.72-.43h.18v.65Z"/>
      </g>
      <g class="cls-5">
        <path class="cls-4" d="M57.48,98.94v1.86h-.67v-1.73c0-.33-.16-.48-.43-.48-.32,0-.52.2-.52.66v1.55h-.67v-1.73c0-.33-.17-.48-.44-.48-.31,0-.52.2-.52.66v1.56h-.67v-2.76h.66v.41c.08-.22.3-.46.72-.46.35,0,.63.17.76.46.1-.2.31-.46.81-.46.59,0,.96.36.96.95Z"/>
      </g>
      <g class="cls-5">
        <path class="cls-4" d="M58.06,96.91h.71v.76h-.71v-.76ZM58.08,100.8h.67v-2.76h-.67v2.76Z"/>
      </g>
      <g class="cls-5">
        <path class="cls-4" d="M59.84,99.62c.01.45.33.67.71.67.26,0,.51-.11.59-.37h.61c-.12.62-.67.95-1.23.95-.67,0-1.33-.45-1.33-1.43s.63-1.44,1.33-1.44,1.24.45,1.24,1.36v.27h-1.92ZM59.86,99.13h1.26c0-.37-.26-.57-.6-.57-.31,0-.6.17-.66.57Z"/>
        <path class="cls-4" d="M63.8,98.65h-.17c-.47,0-.72.26-.72.8v1.35h-.67v-2.76h.66v.4c.14-.3.4-.43.72-.43h.18v.65Z"/>
        <path class="cls-4" d="M64.54,99.62c.01.45.33.67.71.67.26,0,.51-.11.59-.37h.61c-.12.62-.67.95-1.23.95-.67,0-1.33-.45-1.33-1.43s.63-1.44,1.33-1.44,1.24.45,1.24,1.36v.27h-1.92ZM64.56,99.13h1.26c0-.37-.26-.57-.6-.57-.31,0-.6.17-.66.57Z"/>
        <path class="cls-4" d="M69.36,99.02v1.78h-.67v-1.72c0-.31-.18-.5-.49-.5-.38,0-.61.28-.61.73v1.49h-.67v-2.76h.66v.4c.16-.25.38-.45.84-.45.63,0,.93.37.93,1.03Z"/>
      </g>
    </g>
    <g>
      <path class="cls-2" d="M29.36,90.91c-4.02,0-7.29,3.27-7.29,7.29s3.27,7.29,7.29,7.29h52.92c4.03,0,7.29-3.26,7.29-7.29s-3.26-7.29-7.29-7.29c0,0-52.92,0-52.92,0Z"/>
      <path class="cls-4" d="M84.36,98.21s0-.05-.02-.08c0-.02-.02-.05-.05-.07l-3.68-3.68c-.08-.08-.21-.08-.3,0-.08.08-.08.21,0,.3l3.33,3.33h-10.33c-.12,0-.21.09-.21.21s.09.21.21.21h10.33l-3.33,3.33c-.08.08-.08.21,0,.3.08.08.21.08.3,0l3.68-3.68s.03-.04.05-.07.02-.05.02-.08h0Z"/>
    </g>
  </g>
  <g>
    <path class="cls-4" d="M21.72,42.42l1.47-.56v-9.6l-1.47-.27v-.82h9.54l.19,3.47h-.72l-2.1-2.56h-2.64v4.43h3.95v1.12h-3.95v4.5h3.19l2.26-2.85h.74l-.46,3.89h-9.99v-.75Z"/>
    <path class="cls-4" d="M33.45,42.42l1.23-.46v-5.49l-1.2-.56v-.53l3.31-.72v2.1l1.92-2.02c.58,0,1.34.13,1.81.38l-.62,2.38c-.42-.27-.88-.42-1.34-.42-.54,0-1.06.18-1.47.48v4.58l1.23.21v.82h-4.87v-.75Z"/>
    <path class="cls-4" d="M44.47,40.48c0,1.12.67,1.42,1.42,1.42.3,0,.62-.05.91-.13v1.01c-.62.37-1.36.58-2.08.58-1.39,0-2.66-.75-2.66-2.62v-4.93h-1.63v-.77l1.63-.5v-1.6l2.4-.5v2.37h2.34v1.07h-2.34v4.59Z"/>
    <path class="cls-4" d="M47.37,42.42l1.23-.46v-5.49l-1.2-.56v-.53l3.31-.72v2.1l1.92-2.02c.58,0,1.34.13,1.81.38l-.62,2.38c-.42-.27-.88-.42-1.34-.42-.54,0-1.06.18-1.47.48v4.58l1.23.21v.82h-4.87v-.75Z"/>
    <path class="cls-4" d="M58.57,43.21c-.27.11-.75.16-1.1.16-1.63,0-2.47-1.09-2.47-2.34,0-1.33.96-2.14,2.43-2.53l2.32-.61v-.96c0-.85-.58-1.23-1.17-1.23-.7,0-1.46.58-1.46,1.65,0,.08,0,.16.02.27h-1.06l-.74-1.89c.98-.66,2.37-1.07,3.65-1.07,1.68,0,3.09.72,3.09,2.61v3.73c0,.54.26.77.59.77.21,0,.42-.08.56-.29l.29.82c-.27.64-.93,1.07-1.66,1.07s-1.62-.43-1.63-1.68l-1.66,1.52ZM57.43,31.49c.66,0,1.07.43,1.07,1.12s-.42,1.12-1.07,1.12-1.1-.45-1.1-1.12.43-1.12,1.1-1.12ZM59.75,38.74l-1.23.37c-.93.27-1.41.88-1.41,1.49,0,.53.37,1.04,1.15,1.04.62,0,1.2-.32,1.49-.7v-2.19ZM60.52,31.47c.69,0,1.12.45,1.12,1.14s-.43,1.12-1.12,1.12c-.62,0-1.07-.43-1.07-1.12s.45-1.14,1.07-1.14Z"/>
    <path class="cls-4" d="M71.16,35.92c.53.61.82,1.36.82,2.03,0,1.68-1.76,2.72-3.63,2.72-.54,0-1.07-.1-1.54-.24-.38.14-.56.45-.56.77,0,.4.3.78.88.78h3.47c1.68,0,2.56,1.04,2.56,2.26,0,2.1-2.59,3.06-5.12,3.06s-3.95-.88-3.95-1.98c0-.19.05-.38.13-.58l1.86-1.15c-1.01-.29-1.49-1.04-1.49-1.78s.53-1.5,1.57-1.7c-.86-.51-1.44-1.34-1.44-2.45,0-1.74,1.42-3.01,3.44-3.01.45,0,.85.06,1.22.16h3.79v1.25l-2-.14ZM66.2,45.01c0,.64.54,1.3,2.13,1.3,1.44,0,2.67-.54,2.67-1.46,0-.56-.46-.96-1.38-.96h-2.88c-.32.3-.54.72-.54,1.12ZM69.62,37.8c0-1.15-.37-2.27-1.34-2.27s-1.22,1.04-1.22,1.98c0,1.15.4,2.24,1.38,2.24s1.18-1.01,1.18-1.95Z"/>
    <path class="cls-4" d="M81.08,40.69c-.54,1.81-2,2.67-3.49,2.67-1.95,0-3.95-1.49-3.95-4.31s2.08-4.4,4.02-4.4c1.7,0,3.36,1.14,3.36,3.57,0,.26-.02.54-.06.83h-5.3c.19,1.66,1.33,2.37,2.51,2.37.9,0,1.82-.46,2.46-1.42l.45.69ZM78.79,37.91c.18-1.55-.51-2.21-1.3-2.21s-1.7.61-1.84,2.21h3.14Z"/>
    <path class="cls-4" d="M88.73,43.21c-.27.11-.75.16-1.1.16-1.63,0-2.47-1.09-2.47-2.34,0-1.33.96-2.14,2.43-2.53l2.32-.61v-.96c0-.85-.58-1.23-1.17-1.23-.7,0-1.46.58-1.46,1.65,0,.08,0,.16.02.27h-1.06l-.74-1.89c.98-.66,2.37-1.07,3.65-1.07,1.68,0,3.09.72,3.09,2.61v3.73c0,.54.26.77.59.77.21,0,.42-.08.56-.29l.29.82c-.27.64-.93,1.07-1.66,1.07s-1.62-.43-1.63-1.68l-1.66,1.52ZM89.91,38.74l-1.23.37c-.93.27-1.41.88-1.41,1.49,0,.53.37,1.04,1.15,1.04.62,0,1.2-.32,1.49-.7v-2.19Z"/>
    <path class="cls-4" d="M102.49,41.48l1.14.21v.74l-3.25.94v-1.82l-1.82,1.67c-.19.1-.45.16-.75.16-1.07,0-2.56-.75-2.56-2.91v-4.45l-1.23-.4v-.78h3.63v5.09c0,1.04.53,1.5,1.14,1.5.46,0,.96-.27,1.31-.74v-4.67l-1.22-.4v-.78h3.62v6.66Z"/>
    <path class="cls-4" d="M108.21,35.7c-.88,0-1.76.88-1.76,2.66,0,2.06,1.18,3.07,2.43,3.07.88,0,1.79-.5,2.37-1.58l.45.69c-.59,1.98-2.11,2.83-3.57,2.83-1.94,0-3.87-1.5-3.87-4.31s1.98-4.4,4.37-4.4c.96,0,1.94.26,2.91.75l-.7,2.48h-.98c-.02-1.46-.83-2.19-1.65-2.19Z"/>
    <path class="cls-4" d="M112.26,42.42l1.23-.46v-9.11l-1.2-.56v-.53l3.6-.78v5.25l1.54-1.41c.32-.1.67-.16,1.04-.16,1.28,0,2.59.77,2.59,2.82v4.67l1.23.21v.82h-4.66v-.83l1.02-.38v-3.94c0-1.09-.5-1.55-1.12-1.55-.53,0-1.14.32-1.65.85v4.83l1.02.18v.85h-4.66v-.75Z"/>
    <path class="cls-4" d="M126.61,42.42l1.23-.46v-5.43l-1.2-.56v-.53l3.6-.78v7.49l1.23.21v.82h-4.87v-.75ZM127.3,32.05c0-.94.66-1.57,1.6-1.57s1.6.62,1.6,1.57-.66,1.57-1.6,1.57-1.6-.62-1.6-1.57Z"/>
    <path class="cls-4" d="M132.12,42.42l1.23-.46v-5.49l-1.2-.56v-.53l3.31-.72v1.82l1.82-1.66c.32-.1.67-.16,1.04-.16,1.28,0,2.59.77,2.59,2.82v4.67l1.23.21v.82h-4.66v-.83l1.02-.38v-3.94c0-1.09-.5-1.55-1.12-1.55-.53,0-1.14.32-1.65.85v4.83l1.02.18v.85h-4.66v-.75Z"/>
    <path class="cls-4" d="M22.2,59.41h1.23c0,1.95,1.49,2.98,2.74,2.98.88,0,1.65-.51,1.65-1.58,0-1.33-1.15-1.84-2.64-2.59-1.78-.9-3.12-1.71-3.12-3.75,0-2.53,2.1-3.59,4.32-3.59,1.36,0,2.79.4,3.83,1.1l-.8,2.34h-1.15c-.1-1.6-1.17-2.32-2.13-2.32-.83,0-1.57.54-1.57,1.5,0,1.31,1.33,1.89,2.75,2.54,1.7.78,3.2,1.58,3.2,3.71,0,2.61-2.24,3.71-4.56,3.71-1.49,0-3.01-.45-4.07-1.25l.32-2.82Z"/>
    <path class="cls-4" d="M38.98,60.69c-.54,1.81-2,2.67-3.49,2.67-1.95,0-3.95-1.49-3.95-4.31s2.08-4.4,4.02-4.4c1.7,0,3.36,1.14,3.36,3.57,0,.26-.02.54-.06.83h-5.3c.19,1.66,1.33,2.37,2.51,2.37.9,0,1.82-.46,2.46-1.42l.45.69ZM36.7,57.91c.18-1.55-.51-2.21-1.3-2.21s-1.7.61-1.84,2.21h3.14Z"/>
    <path class="cls-4" d="M39.94,62.42l1.23-.46v-5.43l-1.2-.56v-.53l3.6-.78v7.49l1.23.21v.82h-4.87v-.75ZM40.63,52.05c0-.94.66-1.57,1.6-1.57s1.6.62,1.6,1.57-.66,1.57-1.6,1.57-1.6-.62-1.6-1.57Z"/>
    <path class="cls-4" d="M49.08,60.48c0,1.12.67,1.42,1.42,1.42.3,0,.62-.05.91-.13v1.01c-.62.37-1.36.58-2.08.58-1.39,0-2.66-.75-2.66-2.62v-4.93h-1.63v-.77l1.63-.5v-1.6l2.4-.5v2.37h2.34v1.07h-2.34v4.59Z"/>
    <path class="cls-4" d="M53,56.04l-1.26-.48v-.74h4.93v.86l-1.17.16,1.17,4.23,1.57-5.25h1.44l1.94,5.55,1.18-4.35-1.36-.46v-.74h3.94v.85l-1.26.22-2,6.95-1.6.46-2.03-5.46-1.49,5.04-1.47.42-2.51-7.27Z"/>
    <path class="cls-4" d="M69.25,63.21c-.27.11-.75.16-1.1.16-1.63,0-2.47-1.09-2.47-2.34,0-1.33.96-2.14,2.43-2.53l2.32-.61v-.96c0-.85-.58-1.23-1.17-1.23-.7,0-1.46.58-1.46,1.65,0,.08,0,.16.02.27h-1.06l-.74-1.89c.98-.66,2.37-1.07,3.65-1.07,1.68,0,3.09.72,3.09,2.61v3.73c0,.54.26.77.59.77.21,0,.42-.08.56-.29l.29.82c-.27.64-.93,1.07-1.66,1.07s-1.62-.43-1.63-1.68l-1.66,1.52ZM68.12,51.49c.66,0,1.07.43,1.07,1.12s-.42,1.12-1.07,1.12-1.1-.45-1.1-1.12.43-1.12,1.1-1.12ZM70.44,58.74l-1.23.37c-.93.27-1.41.88-1.41,1.49,0,.53.37,1.04,1.15,1.04.62,0,1.2-.32,1.49-.7v-2.19ZM71.21,51.47c.69,0,1.12.45,1.12,1.14s-.43,1.12-1.12,1.12c-.62,0-1.07-.43-1.07-1.12s.45-1.14,1.07-1.14Z"/>
    <path class="cls-4" d="M74.77,62.42l1.23-.46v-5.49l-1.2-.56v-.53l3.31-.72v2.1l1.92-2.02c.58,0,1.34.13,1.81.38l-.62,2.38c-.42-.27-.88-.42-1.34-.42-.54,0-1.06.18-1.47.48v4.58l1.23.21v.82h-4.87v-.75Z"/>
    <path class="cls-4" d="M85.8,60.48c0,1.12.67,1.42,1.42,1.42.3,0,.62-.05.91-.13v1.01c-.62.37-1.36.58-2.08.58-1.39,0-2.66-.75-2.66-2.62v-4.93h-1.63v-.77l1.63-.5v-1.6l2.4-.5v2.37h2.34v1.07h-2.34v4.59Z"/>
    <path class="cls-4" d="M89.06,60.29h1.02c.05,1.41,1.2,2.1,2.08,2.1.62,0,1.1-.42,1.1-1.04,0-.82-.93-1.09-1.92-1.46-1.17-.43-2.42-.96-2.42-2.59,0-1.84,1.57-2.64,3.23-2.64.96,0,2,.26,2.77.72l-.38,1.71h-.96c-.16-1.01-.82-1.41-1.46-1.41-.51,0-1.04.32-1.04.98,0,.78.75,1.09,1.65,1.39,1.23.42,2.72.85,2.72,2.59s-1.63,2.72-3.49,2.72c-1.09,0-2.26-.27-3.12-.77l.21-2.31Z"/>
    <path class="cls-4" d="M96.26,62.42l1.23-.46v-5.49l-1.2-.56v-.53l3.31-.72v1.82l1.82-1.66c.3-.1.67-.16,1.04-.16.94,0,1.94.42,2.19,1.75l1.73-1.58c.37-.1.77-.16,1.17-.16,1.15,0,2.29.58,2.29,2.43v5.06l1.23.21v.82h-4.63v-.82l.99-.35v-4.11c0-.94-.45-1.38-1.04-1.38-.48,0-1.06.29-1.55.83v4.93l.99.18v.72h-4.35v-.82l.96-.35v-4.11c0-.94-.45-1.38-1.02-1.38-.48,0-1.04.29-1.54.83v4.93l.99.18v.72h-4.63v-.75Z"/>
    <path class="cls-4" d="M115.37,63.21c-.27.11-.75.16-1.1.16-1.63,0-2.47-1.09-2.47-2.34,0-1.33.96-2.14,2.43-2.53l2.32-.61v-.96c0-.85-.58-1.23-1.17-1.23-.7,0-1.46.58-1.46,1.65,0,.08,0,.16.02.27h-1.06l-.74-1.89c.98-.66,2.37-1.07,3.65-1.07,1.68,0,3.09.72,3.09,2.61v3.73c0,.54.26.77.59.77.21,0,.42-.08.56-.29l.29.82c-.27.64-.93,1.07-1.66,1.07s-1.62-.43-1.63-1.68l-1.66,1.52ZM114.23,51.49c.66,0,1.07.43,1.07,1.12s-.42,1.12-1.07,1.12-1.1-.45-1.1-1.12.43-1.12,1.1-1.12ZM116.55,58.74l-1.23.37c-.93.27-1.41.88-1.41,1.49,0,.53.37,1.04,1.15,1.04.62,0,1.2-.32,1.49-.7v-2.19ZM117.32,51.47c.69,0,1.12.45,1.12,1.14s-.43,1.12-1.12,1.12c-.62,0-1.07-.43-1.07-1.12s.45-1.14,1.07-1.14Z"/>
    <path class="cls-4" d="M120.89,62.42l1.23-.46v-5.49l-1.2-.56v-.53l3.31-.72v2.1l1.92-2.02c.58,0,1.34.13,1.81.38l-.62,2.38c-.42-.27-.88-.42-1.34-.42-.54,0-1.06.18-1.47.48v4.58l1.23.21v.82h-4.87v-.75Z"/>
    <path class="cls-4" d="M128.28,62.42l1.23-.46v-9.11l-1.2-.56v-.53l3.6-.78v11.17l1.23.21v.82h-4.87v-.75ZM135.13,63.17l-3.2-4.34,3.14-2.94-1.38-.32v-.75h4.11v.85l-1.22.21-2.24,2.13,3.46,4.42v.75h-2.67Z"/>
    <path class="cls-4" d="M141.83,60.48c0,1.12.67,1.42,1.42,1.42.3,0,.62-.05.91-.13v1.01c-.62.37-1.36.58-2.08.58-1.39,0-2.66-.75-2.66-2.62v-4.93h-1.63v-.77l1.63-.5v-1.6l2.4-.5v2.37h2.34v1.07h-2.34v4.59Z"/>
    <path class="cls-4" d="M152.25,60.69c-.54,1.81-2,2.67-3.49,2.67-1.95,0-3.95-1.49-3.95-4.31s2.08-4.4,4.02-4.4c1.7,0,3.36,1.14,3.36,3.57,0,.26-.02.54-.06.83h-5.3c.19,1.66,1.33,2.37,2.51,2.37.9,0,1.83-.46,2.46-1.42l.45.69ZM149.96,57.91c.18-1.55-.51-2.21-1.3-2.21s-1.7.61-1.84,2.21h3.14Z"/>
    <path class="cls-4" d="M153.04,62.42l1.23-.46v-5.49l-1.2-.56v-.53l3.31-.72v1.82l1.82-1.66c.32-.1.67-.16,1.04-.16,1.28,0,2.59.77,2.59,2.82v4.67l1.23.21v.82h-4.66v-.83l1.02-.38v-3.94c0-1.09-.5-1.55-1.12-1.55-.53,0-1.14.32-1.65.85v4.83l1.02.18v.85h-4.66v-.75Z"/>
  </g>
  <g>
    <path class="cls-4" d="M21.92,80.08v-6h4.03v1.04h-2.92v1.4h2.77v1.05h-2.77v1.46h3.08v1.05h-4.19Z"/>
    <path class="cls-4" d="M29.36,76.65h-.28c-.74,0-1.15.41-1.15,1.27v2.16h-1.06v-4.41h1.06v.63c.22-.48.63-.68,1.15-.68h.29v1.03Z"/>
    <path class="cls-4" d="M31.69,74.93c-.38,0-.45.18-.45.45v.29h.82v.96h-.82v3.45h-1.06v-3.45h-.66v-.96h.66v-.24c0-1.18.53-1.44,1.35-1.44h.64v.94h-.48Z"/>
    <path class="cls-4" d="M36.22,77.11v2.97h-1.04v-.64c-.34.56-.87.74-1.34.74-.7,0-1.43-.42-1.43-1.37,0-.7.39-1.17,1.41-1.32l.95-.14c.26-.04.45-.13.45-.4,0-.38-.32-.53-.74-.53-.57,0-.82.28-.86.66h-1.02c.11-1.03.94-1.5,1.93-1.5s1.7.49,1.7,1.53ZM35.19,78.22v-.23c-.1.06-.3.1-.52.13l-.48.06c-.54.07-.71.29-.71.58,0,.34.25.53.62.53.55,0,1.1-.41,1.1-1.06Z"/>
    <path class="cls-4" d="M41.06,77.23v2.85h-1.06v-2.75c0-.5-.28-.79-.78-.79-.61,0-.98.44-.98,1.16v2.38h-1.06v-6.09h1.06v2.3c.26-.42.63-.7,1.34-.7,1.01,0,1.48.59,1.48,1.65Z"/>
    <path class="cls-4" d="M44.56,76.65h-.28c-.74,0-1.15.41-1.15,1.27v2.16h-1.06v-4.41h1.06v.63c.22-.48.63-.68,1.15-.68h.29v1.03Z"/>
    <path class="cls-4" d="M45.75,78.19c.02.72.54,1.06,1.14,1.06.42,0,.82-.18.94-.59h.98c-.19.99-1.06,1.51-1.97,1.51-1.06,0-2.12-.72-2.12-2.29s1-2.3,2.13-2.3,1.98.71,1.98,2.17v.43h-3.07ZM45.77,77.42h2.01c0-.58-.41-.91-.95-.91-.49,0-.96.26-1.06.91Z"/>
    <path class="cls-4" d="M53.46,77.23v2.85h-1.06v-2.75c0-.5-.28-.79-.78-.79-.61,0-.98.44-.98,1.16v2.38h-1.06v-4.41h1.06v.64c.25-.41.61-.72,1.34-.72,1.01,0,1.48.59,1.48,1.65Z"/>
    <path class="cls-4" d="M58.85,80.23c-1.23,0-2.47-.69-2.47-2.19h1.12c.03.89.7,1.24,1.34,1.24.58,0,1.1-.3,1.1-.81,0-.6-.67-.73-1.38-.89-.86-.2-1.98-.51-1.98-1.81s1.02-1.84,2.17-1.84,2.21.6,2.21,1.82h-1.13c-.03-.62-.55-.85-1.12-.85s-1.03.25-1.03.78c0,.58.55.75,1.23.9.76.17,2.14.4,2.14,1.81,0,1.2-1.02,1.83-2.2,1.83Z"/>
    <path class="cls-4" d="M61.81,73.87h1.13v1.21h-1.13v-1.21ZM61.84,80.08h1.06v-4.41h-1.06v4.41Z"/>
    <path class="cls-4" d="M64.69,78.19c.02.72.54,1.06,1.14,1.06.42,0,.82-.18.94-.59h.98c-.19.99-1.06,1.51-1.97,1.51-1.06,0-2.12-.72-2.12-2.29s1-2.3,2.13-2.3,1.98.71,1.98,2.17v.43h-3.07ZM64.72,77.42h2.01c0-.58-.41-.91-.95-.91-.49,0-.96.26-1.06.91Z"/>
    <path class="cls-4" d="M76.75,77.1v2.97h-1.06v-2.77c0-.53-.25-.77-.69-.77-.5,0-.83.31-.83,1.06v2.48h-1.06v-2.77c0-.53-.26-.77-.7-.77-.5,0-.82.32-.82,1.05v2.49h-1.06v-4.41h1.05v.65c.14-.35.47-.73,1.14-.73.57,0,1.01.27,1.22.73.17-.31.49-.73,1.29-.73.94,0,1.54.57,1.54,1.52Z"/>
    <path class="cls-4" d="M78.51,78.19c.02.72.54,1.06,1.14,1.06.42,0,.82-.18.94-.59h.98c-.19.99-1.06,1.51-1.97,1.51-1.06,0-2.12-.72-2.12-2.29s1-2.3,2.13-2.3,1.98.71,1.98,2.17v.43h-3.07ZM78.53,77.42h2.01c0-.58-.41-.91-.95-.91-.49,0-.96.26-1.06.91Z"/>
    <path class="cls-4" d="M86.22,77.23v2.85h-1.06v-2.75c0-.5-.28-.79-.78-.79-.61,0-.98.44-.98,1.16v2.38h-1.06v-6.09h1.06v2.3c.26-.42.63-.7,1.34-.7,1.01,0,1.48.59,1.48,1.65Z"/>
    <path class="cls-4" d="M89.71,76.65h-.28c-.74,0-1.15.41-1.15,1.27v2.16h-1.06v-4.41h1.06v.63c.22-.48.63-.68,1.15-.68h.29v1.03Z"/>
    <path class="cls-4" d="M95.52,80.08h-3.73v-.93l2.37-2.56h-2.33v-.93h3.69v.93l-2.37,2.56h2.37v.93Z"/>
    <path class="cls-4" d="M100.23,80.08h-1.04v-.62c-.26.41-.66.67-1.27.67-.92,0-1.59-.59-1.59-1.72v-2.74h1.06v2.66c0,.6.3.86.75.86.59,0,1.02-.37,1.02-1.38v-2.13h1.06v4.41Z"/>
    <path class="cls-4" d="M107.33,80.08h-1.04v-.68c-.24.51-.75.78-1.36.78-1.03,0-1.94-.76-1.94-2.3s.9-2.29,1.94-2.29c.58,0,1.07.23,1.34.66v-2.26h1.06v6.09ZM106.3,77.86c0-.9-.54-1.33-1.12-1.33s-1.1.44-1.1,1.33.53,1.33,1.1,1.33,1.12-.43,1.12-1.33Z"/>
    <path class="cls-4" d="M109.12,78.19c.02.72.54,1.06,1.14,1.06.42,0,.82-.18.94-.59h.98c-.19.99-1.06,1.51-1.97,1.51-1.06,0-2.12-.72-2.12-2.29s1-2.3,2.13-2.3,1.98.71,1.98,2.17v.43h-3.07ZM109.15,77.42h2.01c0-.58-.41-.91-.95-.91-.49,0-.96.26-1.06.91Z"/>
    <path class="cls-4" d="M116.83,77.23v2.85h-1.06v-2.75c0-.5-.28-.79-.78-.79-.61,0-.98.44-.98,1.16v2.38h-1.06v-4.41h1.06v.64c.25-.41.61-.72,1.34-.72,1.01,0,1.48.59,1.48,1.65Z"/>
    <path class="cls-4" d="M123.87,77.23v2.85h-1.06v-2.75c0-.5-.28-.79-.78-.79-.61,0-.98.44-.98,1.16v2.38h-1.06v-4.41h1.06v.64c.25-.41.61-.72,1.34-.72,1.01,0,1.48.59,1.48,1.65Z"/>
    <path class="cls-4" d="M125.63,78.19c.02.72.54,1.06,1.14,1.06.42,0,.82-.18.94-.59h.98c-.19.99-1.06,1.51-1.97,1.51-1.06,0-2.12-.72-2.12-2.29s1-2.3,2.13-2.3,1.98.71,1.98,2.17v.43h-3.07ZM125.65,77.42h2.01c0-.58-.41-.91-.95-.91-.49,0-.96.26-1.06.91Z"/>
    <path class="cls-4" d="M133.32,80.08h-1.04v-.62c-.26.41-.66.67-1.27.67-.92,0-1.59-.59-1.59-1.72v-2.74h1.06v2.66c0,.6.3.86.75.86.59,0,1.02-.37,1.02-1.38v-2.13h1.06v4.41Z"/>
    <path class="cls-4" d="M135.12,78.19c.02.72.54,1.06,1.14,1.06.42,0,.82-.18.94-.59h.98c-.19.99-1.06,1.51-1.97,1.51-1.06,0-2.12-.72-2.12-2.29s1-2.3,2.13-2.3,1.98.71,1.98,2.17v.43h-3.07ZM135.14,77.42h2.01c0-.58-.41-.91-.95-.91-.49,0-.96.26-1.06.91Z"/>
    <path class="cls-4" d="M142.83,77.23v2.85h-1.06v-2.75c0-.5-.28-.79-.78-.79-.61,0-.98.44-.98,1.16v2.38h-1.06v-4.41h1.06v.64c.25-.41.61-.72,1.34-.72,1.01,0,1.48.59,1.48,1.65Z"/>
    <path class="cls-4" d="M147.22,80.08h-1.11v-6h1.11v6Z"/>
    <path class="cls-4" d="M152.26,77.23v2.85h-1.06v-2.75c0-.5-.28-.79-.78-.79-.61,0-.98.44-.98,1.16v2.38h-1.06v-4.41h1.06v.64c.25-.41.61-.72,1.34-.72,1.01,0,1.48.59,1.48,1.65Z"/>
    <path class="cls-4" d="M154.32,80.08h-1.06v-6.09h1.06v6.09Z"/>
    <path class="cls-4" d="M155.32,73.87h1.13v1.21h-1.13v-1.21ZM155.36,80.08h1.06v-4.41h-1.06v4.41Z"/>
    <path class="cls-4" d="M161.33,77.23v2.85h-1.06v-2.75c0-.5-.28-.79-.78-.79-.61,0-.98.44-.98,1.16v2.38h-1.06v-4.41h1.06v.64c.25-.41.61-.72,1.34-.72,1.01,0,1.48.59,1.48,1.65Z"/>
    <path class="cls-4" d="M163.08,78.19c.02.72.54,1.06,1.13,1.06.42,0,.82-.18.94-.59h.97c-.19.99-1.06,1.51-1.97,1.51-1.06,0-2.12-.72-2.12-2.29s1-2.3,2.13-2.3,1.97.71,1.97,2.17v.43h-3.07ZM163.11,77.42h2.01c0-.58-.41-.91-.95-.91-.49,0-.96.26-1.06.91Z"/>
    <path class="cls-4" d="M169.26,78.02h-2.46v-.94h2.46v.94Z"/>
    <path class="cls-4" d="M169.98,77.07c0-1.72,1.21-3.13,3.01-3.13s3,1.43,3,3.15-1.17,3.14-2.98,3.14-3.02-1.42-3.02-3.16ZM171.11,77.09c0,1.17.71,2.06,1.88,2.06s1.87-.9,1.87-2.09-.69-2.06-1.86-2.06-1.89.9-1.89,2.09Z"/>
    <path class="cls-4" d="M181.16,77.81c0,1.58-.99,2.29-2.02,2.29-.59,0-1-.25-1.25-.56v2.17h-1.06v-6.06h1.04v.7c.22-.49.73-.78,1.38-.78,1.03,0,1.92.74,1.92,2.23ZM180.08,77.86c0-.9-.53-1.3-1.1-1.3s-1.12.4-1.12,1.3.54,1.3,1.12,1.3,1.1-.41,1.1-1.3Z"/>
    <path class="cls-4" d="M184.18,80.08h-.7c-.82,0-1.35-.26-1.35-1.44v-2.01h-.81v-.96h.81v-.99l1.06-.3v1.29h.88v.96h-.88v2.06c0,.26.07.45.45.45h.54v.94Z"/>
    <path class="cls-4" d="M184.74,73.87h1.13v1.21h-1.13v-1.21ZM184.77,80.08h1.06v-4.41h-1.06v4.41Z"/>
    <path class="cls-4" d="M190.9,77.88c0,1.44-.92,2.29-2.16,2.29s-2.15-.86-2.15-2.29.92-2.29,2.15-2.29,2.16.86,2.16,2.29ZM187.68,77.88c0,.89.49,1.3,1.08,1.3.63,0,1.06-.48,1.06-1.3,0-.89-.49-1.3-1.08-1.3-.63,0-1.06.48-1.06,1.3Z"/>
    <path class="cls-4" d="M195.54,77.23v2.85h-1.06v-2.75c0-.5-.28-.79-.78-.79-.61,0-.98.44-.98,1.16v2.38h-1.06v-4.41h1.06v.64c.25-.41.61-.72,1.34-.72,1.01,0,1.48.59,1.48,1.65Z"/>
    <path class="cls-4" d="M200.07,78.71c0,.99-.88,1.46-1.87,1.46-.91,0-1.9-.39-1.97-1.51h1.07c.07.45.46.63.96.63.45,0,.77-.14.77-.48,0-.27-.21-.33-.82-.44-.86-.15-1.85-.3-1.85-1.38,0-1,.84-1.41,1.75-1.41,1.03,0,1.79.51,1.85,1.5h-1.04c-.04-.44-.35-.61-.8-.61-.53,0-.74.23-.74.49,0,.34.39.41.93.49.79.12,1.75.23,1.75,1.26Z"/>
    <path class="cls-4" d="M204.31,78.71c0,.99-.88,1.46-1.87,1.46-.91,0-1.9-.39-1.97-1.51h1.07c.07.45.46.63.96.63.45,0,.77-.14.77-.48,0-.27-.21-.33-.82-.44-.86-.15-1.85-.3-1.85-1.38,0-1,.84-1.41,1.75-1.41,1.03,0,1.79.51,1.85,1.5h-1.04c-.04-.44-.35-.61-.8-.61-.53,0-.74.23-.74.49,0,.34.39.41.93.49.79.12,1.75.23,1.75,1.26Z"/>
    <path class="cls-4" d="M206.9,80.17c-1.45,0-2.14-1.1-2.14-2.29s.69-2.29,2.13-2.29c1.09,0,1.91.63,1.95,1.67h-1.04c-.06-.42-.36-.7-.88-.7-.78,0-1.09.62-1.09,1.31s.34,1.31,1.09,1.31c.51,0,.82-.28.9-.67h1.06c-.14,1.08-.9,1.66-1.97,1.66Z"/>
    <path class="cls-4" d="M213.51,77.23v2.85h-1.06v-2.75c0-.5-.28-.79-.78-.79-.61,0-.98.44-.98,1.16v2.38h-1.06v-6.09h1.06v2.3c.26-.42.63-.7,1.33-.7,1.01,0,1.48.59,1.48,1.65Z"/>
    <path class="cls-4" d="M215.27,78.19c.02.72.54,1.06,1.13,1.06.42,0,.82-.18.94-.59h.97c-.19.99-1.06,1.51-1.97,1.51-1.06,0-2.12-.72-2.12-2.29s1-2.3,2.13-2.3,1.98.71,1.98,2.17v.43h-3.07ZM215.29,77.42h2.01c0-.58-.41-.91-.95-.91-.49,0-.96.26-1.06.91Z"/>
    <path class="cls-4" d="M219.06,73.87h1.13v1.21h-1.13v-1.21ZM219.09,80.08h1.06v-4.41h-1.06v4.41Z"/>
    <path class="cls-4" d="M225.07,77.23v2.85h-1.06v-2.75c0-.5-.28-.79-.78-.79-.61,0-.98.44-.98,1.16v2.38h-1.06v-4.41h1.06v.64c.25-.41.61-.72,1.34-.72,1.01,0,1.48.59,1.48,1.65Z"/>
    <path class="cls-4" d="M226.82,78.19c.02.72.54,1.06,1.13,1.06.42,0,.82-.18.94-.59h.97c-.19.99-1.06,1.51-1.97,1.51-1.06,0-2.12-.72-2.12-2.29s1-2.3,2.13-2.3,1.97.71,1.97,2.17v.43h-3.07ZM226.84,77.42h2.01c0-.58-.41-.91-.95-.91-.49,0-.96.26-1.06.91Z"/>
    <path class="cls-4" d="M234.53,77.23v2.85h-1.06v-2.75c0-.5-.28-.79-.78-.79-.61,0-.98.44-.98,1.16v2.38h-1.06v-4.41h1.06v.64c.25-.41.61-.72,1.34-.72,1.01,0,1.48.59,1.48,1.65Z"/>
  </g>
  <rect class="cls-3" x="0" y="128.71" width="21.26" height="21.26"/>
  <g class="cls-8">
    <path class="cls-7" d="M-662.7,262.75l-.26-.26L67.86-468.34l.26.26L-662.7,262.75h0ZM-660.85,264.6l-.26-.26L69.72-466.49l.26.26L-660.85,264.6h0ZM-658.99,266.46l-.26-.26L71.57-464.63l.26.26L-658.99,266.46h0ZM-657.14,268.31l-.26-.26L73.42-462.78l.26.26L-657.14,268.31h0ZM-655.29,270.16l-.26-.26L75.28-460.93l.26.26L-655.29,270.16h0ZM-653.43,272.02l-.26-.26L77.13-459.07l.26.26L-653.43,272.02h0ZM-651.58,273.87l-.26-.26L78.99-457.22l.26.26L-651.58,273.87h0ZM-649.73,275.73l-.26-.26L80.84-455.36l.26.26L-649.73,275.73h0ZM-647.87,277.58l-.26-.26L82.7-453.51l.26.26L-647.87,277.58h0ZM-646.02,279.44l-.26-.26L84.55-451.65l.26.26L-646.02,279.44h0ZM-644.16,281.29l-.26-.26L86.41-449.8l.26.26L-644.16,281.29h0ZM-642.31,283.15l-.26-.26L88.26-447.94l.26.26L-642.31,283.15h0ZM-640.45,285l-.26-.26L90.11-446.09l.26.26L-640.45,285h0ZM-638.6,286.85l-.26-.26L91.97-444.24l.26.26L-638.6,286.85h0ZM-636.74,288.71l-.26-.26L93.82-442.38l.26.26L-636.74,288.71h0ZM-634.89,290.56l-.26-.26L95.68-440.53l.26.26L-634.89,290.56h0ZM-633.04,292.41l-.26-.26L97.53-438.67l.26.26L-633.04,292.41h0ZM-631.18,294.27l-.26-.26L99.39-436.82l.26.26L-631.18,294.27h0ZM-629.33,296.12l-.26-.26L101.24-434.97l.26.26L-629.33,296.12h0ZM-627.47,297.98l-.26-.26L103.09-433.11l.26.26L-627.47,297.98h0ZM-625.62,299.83l-.26-.26L104.95-431.26l.26.26L-625.62,299.83h0ZM-623.76,301.69l-.26-.26L106.8-429.4l.26.26L-623.76,301.69h0ZM-621.91,303.54l-.26-.26L108.66-427.55l.26.26L-621.91,303.54h0ZM-620.06,305.39l-.26-.26L110.51-425.69l.26.26L-620.06,305.39h0ZM-618.2,307.25l-.26-.26L112.36-423.84l.26.26L-618.2,307.25h0ZM-616.35,309.1l-.26-.26L114.22-421.99l.26.26L-616.35,309.1h0ZM-614.49,310.96l-.26-.26L116.07-420.13l.26.26L-614.49,310.96h0ZM-612.64,312.81l-.26-.26L117.93-418.28l.26.26L-612.64,312.81h0ZM-610.79,314.67l-.26-.26L119.78-416.42l.26.26L-610.79,314.67h0ZM-608.93,316.52l-.26-.26L121.64-414.57l.26.26L-608.93,316.52h0ZM-607.08,318.38l-.26-.26L123.49-412.71l.26.26L-607.08,318.38h0ZM-605.22,320.23l-.26-.26L125.34-410.86l.26.26L-605.22,320.23h0ZM-603.37,322.08l-.26-.26L127.2-409.01l.26.26L-603.37,322.08h0ZM-601.51,323.94l-.26-.26L129.05-407.15l.26.26L-601.51,323.94h0ZM-599.66,325.79l-.26-.26L130.91-405.3l.26.26L-599.66,325.79h0ZM-597.81,327.64l-.26-.26L132.76-403.44l.26.26L-597.81,327.64h0ZM-595.95,329.5l-.26-.26L134.62-401.59l.26.26L-595.95,329.5h0ZM-594.1,331.35l-.26-.26L136.47-399.73l.26.26L-594.1,331.35h0ZM-592.24,333.21l-.26-.26L138.32-397.88l.26.26L-592.24,333.21h0ZM-590.39,335.06l-.26-.26L140.18-396.03l.26.26L-590.39,335.06h0ZM-588.53,336.92l-.26-.26L142.03-394.17l.26.26L-588.53,336.92h0ZM-586.68,338.77l-.26-.26L143.89-392.32l.26.26L-586.68,338.77h0ZM-584.82,340.63l-.26-.26L145.74-390.46l.26.26L-584.82,340.63h0ZM-582.97,342.48l-.26-.26L147.59-388.61l.26.26L-582.97,342.48h0ZM-581.12,344.33l-.26-.26L149.45-386.76l.26.26L-581.12,344.33h0ZM-579.26,346.19l-.26-.26L151.3-384.9l.26.26L-579.26,346.19h0ZM-577.41,348.04l-.26-.26L153.16-383.05l.26.26L-577.41,348.04h0ZM-575.56,349.9l-.26-.26L155.01-381.19l.26.26L-575.56,349.9h0ZM-573.7,351.75l-.26-.26L156.87-379.34l.26.26L-573.7,351.75h0ZM-571.85,353.61l-.26-.26L158.72-377.48l.26.26L-571.85,353.61h0ZM-569.99,355.46l-.26-.26L160.58-375.63l.26.26L-569.99,355.46h0ZM-568.14,357.31l-.26-.26L162.43-373.77l.26.26L-568.14,357.31h0ZM-566.28,359.17l-.26-.26L164.28-371.92l.26.26L-566.28,359.17h0ZM-564.43,361.02l-.26-.26L166.14-370.07l.26.26L-564.43,361.02h0ZM-562.57,362.88l-.26-.26L167.99-368.21l.26.26L-562.57,362.88h0ZM-560.72,364.73l-.26-.26L169.85-366.36l.26.26L-560.72,364.73h0ZM-558.87,366.58l-.26-.26L171.7-364.5l.26.26L-558.87,366.58h0ZM-557.01,368.44l-.26-.26L173.55-362.65l.26.26L-557.01,368.44h0ZM-555.16,370.29l-.26-.26L175.41-360.8l.26.26L-555.16,370.29h0ZM-553.3,372.15l-.26-.26L177.26-358.94l.26.26L-553.3,372.15h0ZM-551.45,374l-.26-.26L179.12-357.09l.26.26L-551.45,374h0ZM-549.59,375.86l-.26-.26L180.97-355.23l.26.26L-549.59,375.86h0ZM-547.74,377.71l-.26-.26L182.83-353.38l.26.26L-547.74,377.71h0ZM-545.89,379.56l-.26-.26L184.68-351.52l.26.26L-545.89,379.56h0ZM-544.03,381.42l-.26-.26L186.53-349.67l.26.26L-544.03,381.42h0ZM-542.18,383.27l-.26-.26L188.39-347.82l.26.26L-542.18,383.27h0ZM-540.32,385.13l-.26-.26L190.24-345.96l.26.26L-540.32,385.13h0ZM-538.47,386.98l-.26-.26L192.1-344.11l.26.26L-538.47,386.98h0ZM-536.62,388.84l-.26-.26L193.95-342.25l.26.26L-536.62,388.84h0ZM-534.76,390.69l-.26-.26L195.81-340.4l.26.26L-534.76,390.69h0ZM-532.91,392.55l-.26-.26L197.66-338.54l.26.26L-532.91,392.55h0ZM-531.05,394.4l-.26-.26L199.52-336.69l.26.26L-531.05,394.4h0ZM-529.2,396.25l-.26-.26L201.37-334.84l.26.26L-529.2,396.25h0ZM-527.34,398.11l-.26-.26L203.22-332.98l.26.26L-527.34,398.11h0ZM-525.49,399.96l-.26-.26L205.08-331.13l.26.26L-525.49,399.96h0ZM-523.64,401.81l-.26-.26L206.93-329.27l.26.26L-523.64,401.81h0ZM-521.78,403.67l-.26-.26L208.79-327.42l.26.26L-521.78,403.67h0ZM-519.93,405.52l-.26-.26L210.64-325.56l.26.26L-519.93,405.52h0ZM-518.07,407.38l-.26-.26L212.49-323.71l.26.26L-518.07,407.38h0ZM-516.22,409.23l-.26-.26L214.35-321.86l.26.26L-516.22,409.23h0ZM-514.36,411.09l-.26-.26L216.2-320l.26.26L-514.36,411.09h0ZM-512.51,412.94l-.26-.26L218.06-318.15l.26.26L-512.51,412.94h0ZM-510.66,414.8l-.26-.26L219.91-316.29l.26.26L-510.66,414.8h0ZM-508.8,416.65l-.26-.26L221.76-314.44l.26.26L-508.8,416.65h0ZM-506.95,418.5l-.26-.26L223.62-312.59l.26.26L-506.95,418.5h0ZM-505.09,420.36l-.26-.26L225.47-310.73l.26.26L-505.09,420.36h0ZM-503.24,422.21l-.26-.26L227.33-308.88l.26.26L-503.24,422.21h0ZM-501.38,424.07l-.26-.26L229.18-307.02l.26.26L-501.38,424.07h0ZM-499.53,425.92l-.26-.26L231.04-305.17l.26.26L-499.53,425.92h0ZM-497.68,427.78l-.26-.26L232.89-303.31l.26.26L-497.68,427.78h0ZM-495.82,429.63l-.26-.26L234.75-301.46l.26.26L-495.82,429.63h0ZM-493.97,431.48l-.26-.26L236.6-299.61l.26.26L-493.97,431.48h0ZM-492.11,433.34l-.26-.26L238.45-297.75l.26.26L-492.11,433.34h0ZM-490.26,435.19l-.26-.26L240.31-295.9l.26.26L-490.26,435.19h0ZM-488.4,437.05l-.26-.26L242.16-294.04l.26.26L-488.4,437.05h0ZM-486.55,438.9l-.26-.26L244.02-292.19l.26.26L-486.55,438.9h0ZM-484.7,440.75l-.26-.26L245.87-290.33l.26.26L-484.7,440.75h0ZM-482.84,442.61l-.26-.26L247.72-288.48l.26.26L-482.84,442.61h0ZM-480.99,444.46l-.26-.26L249.58-286.63l.26.26L-480.99,444.46h0ZM-479.13,446.32l-.26-.26L251.43-284.77l.26.26L-479.13,446.32h0ZM-477.28,448.17l-.26-.26L253.29-282.92l.26.26L-477.28,448.17h0ZM-475.42,450.03l-.26-.26L255.14-281.06l.26.26L-475.42,450.03h0ZM-473.57,451.88l-.26-.26L257-279.21l.26.26L-473.57,451.88h0ZM-471.72,453.74l-.26-.26L258.85-277.35l.26.26L-471.72,453.74h0ZM-469.86,455.59l-.26-.26L260.7-275.5l.26.26L-469.86,455.59h0ZM-468.01,457.44l-.26-.26L262.56-273.65l.26.26L-468.01,457.44h0ZM-466.15,459.3l-.26-.26L264.41-271.79l.26.26L-466.15,459.3h0ZM-464.3,461.15l-.26-.26L266.27-269.94l.26.26L-464.3,461.15h0ZM-462.45,463.01l-.26-.26L268.12-268.08l.26.26L-462.45,463.01h0ZM-460.59,464.86l-.26-.26L269.98-266.23l.26.26L-460.59,464.86h0ZM-458.74,466.71l-.26-.26L271.83-264.37l.26.26L-458.74,466.71h0ZM-456.88,468.57l-.26-.26L273.69-262.52l.26.26L-456.88,468.57h0ZM-455.03,470.42l-.26-.26L275.54-260.67l.26.26L-455.03,470.42h0ZM-453.17,472.28l-.26-.26L277.39-258.81l.26.26L-453.17,472.28h0ZM-451.32,474.13l-.26-.26L279.25-256.96l.26.26L-451.32,474.13h0ZM-449.47,475.98l-.26-.26L281.1-255.1l.26.26L-449.47,475.98h0ZM-447.61,477.84l-.26-.26L282.96-253.25l.26.26L-447.61,477.84h0ZM-445.76,479.69l-.26-.26L284.81-251.39l.26.26L-445.76,479.69h0ZM-443.9,481.55l-.26-.26L286.66-249.54l.26.26L-443.9,481.55h0ZM-442.05,483.4l-.26-.26L288.52-247.69l.26.26L-442.05,483.4h0ZM-440.19,485.26l-.26-.26L290.37-245.83l.26.26L-440.19,485.26h0ZM-438.34,487.11l-.26-.26L292.23-243.98l.26.26L-438.34,487.11h0ZM-436.49,488.97l-.26-.26L294.08-242.12l.26.26L-436.49,488.97h0ZM-434.63,490.82l-.26-.26L295.93-240.27l.26.26L-434.63,490.82h0ZM-432.78,492.67l-.26-.26L297.79-238.42l.26.26L-432.78,492.67h0ZM-430.92,494.53l-.26-.26L299.64-236.56l.26.26L-430.92,494.53h0ZM-429.07,496.38l-.26-.26L301.5-234.71l.26.26L-429.07,496.38h0ZM-427.21,498.24l-.26-.26L303.35-232.85l.26.26L-427.21,498.24h0ZM-425.36,500.09l-.26-.26L305.21-231l.26.26L-425.36,500.09h0ZM-423.51,501.94l-.26-.26L307.06-229.14l.26.26L-423.51,501.94h0ZM-421.65,503.8l-.26-.26L308.92-227.29l.26.26L-421.65,503.8h0ZM-419.8,505.65l-.26-.26L310.77-225.44l.26.26L-419.8,505.65h0ZM-417.94,507.51l-.26-.26L312.62-223.58l.26.26L-417.94,507.51h0ZM-416.09,509.36l-.26-.26L314.48-221.73l.26.26L-416.09,509.36h0ZM-414.24,511.22l-.26-.26L316.33-219.87l.26.26L-414.24,511.22h0ZM-412.38,513.07l-.26-.26L318.19-218.02l.26.26L-412.38,513.07h0ZM-410.53,514.92l-.26-.26L320.04-216.16l.26.26L-410.53,514.92h0ZM-408.67,516.78l-.26-.26L321.89-214.31l.26.26L-408.67,516.78h0ZM-406.82,518.63l-.26-.26L323.75-212.46l.26.26L-406.82,518.63h0ZM-404.96,520.49l-.26-.26L325.6-210.6l.26.26L-404.96,520.49h0ZM-403.11,522.34l-.26-.26L327.46-208.75l.26.26L-403.11,522.34h0ZM-401.26,524.2l-.26-.26L329.31-206.89l.26.26L-401.26,524.2h0ZM-399.4,526.05l-.26-.26L331.17-205.04l.26.26L-399.4,526.05h0ZM-397.55,527.91l-.26-.26L333.02-203.18l.26.26L-397.55,527.91h0ZM-395.69,529.76l-.26-.26L334.87-201.33l.26.26L-395.69,529.76h0ZM-393.84,531.61l-.26-.26L336.73-199.48l.26.26L-393.84,531.61h0ZM-391.98,533.47l-.26-.26L338.58-197.62l.26.26L-391.98,533.47h0ZM-390.13,535.32l-.26-.26L340.44-195.77l.26.26L-390.13,535.32h0ZM-388.28,537.18l-.26-.26L342.29-193.91l.26.26L-388.28,537.18h0ZM-386.42,539.03l-.26-.26L344.15-192.06l.26.26L-386.42,539.03h0ZM-384.57,540.88l-.26-.26L346-190.2l.26.26L-384.57,540.88h0ZM-382.71,542.74l-.26-.26L347.86-188.35l.26.26L-382.71,542.74h0ZM-380.86,544.59l-.26-.26L349.71-186.5l.26.26L-380.86,544.59h0ZM-379,546.45l-.26-.26L351.56-184.64l.26.26L-379,546.45h0ZM-377.15,548.3l-.26-.26L353.42-182.79l.26.26L-377.15,548.3h0ZM-375.3,550.15l-.26-.26L355.27-180.93l.26.26L-375.3,550.15h0ZM-373.44,552.01l-.26-.26L357.12-179.08l.26.26L-373.44,552.01h0ZM-371.59,553.86l-.26-.26L358.98-177.23l.26.26L-371.59,553.86h0ZM-369.73,555.72l-.26-.26L360.83-175.37l.26.26L-369.73,555.72h0ZM-367.88,557.57l-.26-.26L362.69-173.52l.26.26L-367.88,557.57h0ZM-366.03,559.43l-.26-.26L364.54-171.66l.26.26L-366.03,559.43h0ZM-364.17,561.28l-.26-.26L366.4-169.81l.26.26L-364.17,561.28h0ZM-362.32,563.14l-.26-.26L368.25-167.95l.26.26L-362.32,563.14h0ZM-360.46,564.99l-.26-.26L370.11-166.1l.26.26L-360.46,564.99h0ZM-358.61,566.84l-.26-.26L371.96-164.25l.26.26L-358.61,566.84h0ZM-356.75,568.7l-.26-.26L373.81-162.39l.26.26L-356.75,568.7h0ZM-354.9,570.55l-.26-.26L375.67-160.54l.26.26L-354.9,570.55h0ZM-353.05,572.41l-.26-.26L377.52-158.68l.26.26L-353.05,572.41h0ZM-351.19,574.26l-.26-.26L379.38-156.83l.26.26L-351.19,574.26h0ZM-349.34,576.11l-.26-.26L381.23-154.97l.26.26L-349.34,576.11h0ZM-347.48,577.97l-.26-.26L383.09-153.12l.26.26L-347.48,577.97h0ZM-345.63,579.82l-.26-.26L384.94-151.27l.26.26L-345.63,579.82h0ZM-343.77,581.68l-.26-.26L386.79-149.41l.26.26L-343.77,581.68h0ZM-341.92,583.53l-.26-.26L388.65-147.56l.26.26L-341.92,583.53h0ZM-340.07,585.39l-.26-.26L390.5-145.7l.26.26L-340.07,585.39h0ZM-338.21,587.24l-.26-.26L392.35-143.85l.26.26L-338.21,587.24h0ZM-336.36,589.09l-.26-.26L394.21-141.99l.26.26L-336.36,589.09h0ZM-334.5,590.95l-.26-.26L396.06-140.14l.26.26L-334.5,590.95h0ZM-332.65,592.8l-.26-.26L397.92-138.29l.26.26L-332.65,592.8h0ZM-330.79,594.66l-.26-.26L399.77-136.43l.26.26L-330.79,594.66h0ZM-328.94,596.51l-.26-.26L401.63-134.58l.26.26L-328.94,596.51h0ZM-327.09,598.37l-.26-.26L403.48-132.72l.26.26L-327.09,598.37h0ZM-325.23,600.22l-.26-.26L405.34-130.87l.26.26L-325.23,600.22h0ZM-323.38,602.08l-.26-.26L407.19-129.02l.26.26L-323.38,602.08h0ZM-321.52,603.93l-.26-.26L409.04-127.16l.26.26L-321.52,603.93h0ZM-319.67,605.78l-.26-.26L410.9-125.31l.26.26L-319.67,605.78h0ZM-317.81,607.64l-.26-.26L412.75-123.45l.26.26L-317.81,607.64h0ZM-315.96,609.49l-.26-.26L414.61-121.6l.26.26L-315.96,609.49h0ZM-314.11,611.34l-.26-.26L416.46-119.74l.26.26L-314.11,611.34h0ZM-312.25,613.2l-.26-.26L418.32-117.89l.26.26L-312.25,613.2h0ZM-310.4,615.05l-.26-.26L420.17-116.04l.26.26L-310.4,615.05h0ZM-308.54,616.91l-.26-.26L422.02-114.18l.26.26L-308.54,616.91h0ZM-306.69,618.76l-.26-.26L423.88-112.33l.26.26L-306.69,618.76h0ZM-304.83,620.62l-.26-.26L425.73-110.47l.26.26L-304.83,620.62h0ZM-302.98,622.47l-.26-.26L427.59-108.62l.26.26L-302.98,622.47h0ZM-301.13,624.32l-.26-.26L429.44-106.76l.26.26L-301.13,624.32h0ZM-299.27,626.18l-.26-.26L431.29-104.91l.26.26L-299.27,626.18h0ZM-297.42,628.03l-.26-.26L433.15-103.06l.26.26L-297.42,628.03h0ZM-295.56,629.89l-.26-.26L435-101.2l.26.26L-295.56,629.89h0ZM-293.71,631.74l-.26-.26L436.86-99.35l.26.26L-293.71,631.74h0ZM-291.86,633.6l-.26-.26L438.71-97.49l.26.26L-291.86,633.6h0ZM-290,635.45l-.26-.26L440.57-95.64l.26.26L-290,635.45h0ZM-288.15,637.3l-.26-.26L442.42-93.78l.26.26L-288.15,637.3h0ZM-286.29,639.16l-.26-.26L444.27-91.93l.26.26L-286.29,639.16h0ZM-284.44,641.01l-.26-.26L446.13-90.08l.26.26L-284.44,641.01h0ZM-282.58,642.87l-.26-.26L447.98-88.22l.26.26L-282.58,642.87h0ZM-280.73,644.72l-.26-.26L449.84-86.37l.26.26L-280.73,644.72h0ZM-278.88,646.57l-.26-.26L451.69-84.51l.26.26L-278.88,646.57h0ZM-277.02,648.43l-.26-.26L453.54-82.66l.26.26L-277.02,648.43h0ZM-275.17,650.28l-.26-.26L455.4-80.81l.26.26L-275.17,650.28h0ZM-273.31,652.14l-.26-.26L457.25-78.95l.26.26L-273.31,652.14h0ZM-271.46,653.99l-.26-.26L459.11-77.1l.26.26L-271.46,653.99h0ZM-269.6,655.85l-.26-.26L460.96-75.24l.26.26L-269.6,655.85h0ZM-267.75,657.7l-.26-.26L462.82-73.39l.26.26L-267.75,657.7h0ZM-265.9,659.56l-.26-.26L464.67-71.53l.26.26L-265.9,659.56h0ZM-264.04,661.41l-.26-.26L466.52-69.68l.26.26L-264.04,661.41h0ZM-262.19,663.26l-.26-.26L468.38-67.83l.26.26L-262.19,663.26h0ZM-260.33,665.12l-.26-.26L470.23-65.97l.26.26L-260.33,665.12h0ZM-258.48,666.97l-.26-.26L472.09-64.12l.26.26L-258.48,666.97h0ZM-256.63,668.83l-.26-.26L473.94-62.26l.26.26L-256.63,668.83h0ZM-254.77,670.68l-.26-.26L475.8-60.41l.26.26L-254.77,670.68h0ZM-252.92,672.53l-.26-.26L477.65-58.55l.26.26L-252.92,672.53h0ZM-251.06,674.39l-.26-.26L479.51-56.7l.26.26L-251.06,674.39h0ZM-249.21,676.24l-.26-.26L481.36-54.85l.26.26L-249.21,676.24h0ZM-247.35,678.1l-.26-.26L483.21-52.99l.26.26L-247.35,678.1h0ZM-245.5,679.95l-.26-.26L485.07-51.14l.26.26L-245.5,679.95h0ZM-243.65,681.81l-.26-.26L486.92-49.28l.26.26L-243.65,681.81h0ZM-241.79,683.66l-.26-.26L488.77-47.43l.26.26L-241.79,683.66h0ZM-239.94,685.51l-.26-.26L490.63-45.57l.26.26L-239.94,685.51h0ZM-238.08,687.37l-.26-.26L492.48-43.72l.26.26L-238.08,687.37h0ZM-236.23,689.22l-.26-.26L494.34-41.87l.26.26L-236.23,689.22h0ZM-234.37,691.08l-.26-.26L496.19-40.01l.26.26L-234.37,691.08h0ZM-232.52,692.93l-.26-.26L498.05-38.16l.26.26L-232.52,692.93h0ZM-230.67,694.79l-.26-.26L499.9-36.3l.26.26L-230.67,694.79h0ZM-228.81,696.64l-.26-.26L501.76-34.45l.26.26L-228.81,696.64h0ZM-226.96,698.49l-.26-.26L503.61-32.6l.26.26L-226.96,698.49h0ZM-225.1,700.35l-.26-.26L505.46-30.74l.26.26L-225.1,700.35h0ZM-223.25,702.2l-.26-.26L507.32-28.89l.26.26L-223.25,702.2h0ZM-221.4,704.06l-.26-.26L509.17-27.03l.26.26L-221.4,704.06h0ZM-219.54,705.91l-.26-.26L511.03-25.18l.26.26L-219.54,705.91h0ZM-217.69,707.76l-.26-.26L512.88-23.32l.26.26L-217.69,707.76h0ZM-215.83,709.62l-.26-.26L514.74-21.47l.26.26L-215.83,709.62h0ZM-213.98,711.47l-.26-.26L516.59-19.62l.26.26L-213.98,711.47h0ZM-212.12,713.33l-.26-.26L518.44-17.76l.26.26L-212.12,713.33h0ZM-210.27,715.18l-.26-.26L520.3-15.91l.26.26L-210.27,715.18h0ZM-208.42,717.04l-.26-.26L522.15-14.05l.26.26L-208.42,717.04h0ZM-206.56,718.89l-.26-.26L524.01-12.2l.26.26L-206.56,718.89h0ZM-204.71,720.74l-.26-.26L525.86-10.34l.26.26L-204.71,720.74h0ZM-202.85,722.6l-.26-.26L527.71-8.49l.26.26L-202.85,722.6h0ZM-201,724.45l-.26-.26L529.57-6.64l.26.26L-201,724.45h0ZM-199.14,726.31l-.26-.26L531.42-4.78l.26.26L-199.14,726.31h0ZM-197.29,728.16l-.26-.26L533.28-2.93l.26.26L-197.29,728.16h0ZM-195.44,730.02l-.26-.26L535.13-1.07l.26.26L-195.44,730.02h0ZM-193.58,731.87l-.26-.26L536.99.78l.26.26L-193.58,731.87h0ZM-191.73,733.72l-.26-.26L538.84,2.63l.26.26L-191.73,733.72h0ZM-189.87,735.58l-.26-.26L540.69,4.49l.26.26L-189.87,735.58h0ZM-188.02,737.43l-.26-.26L542.55,6.34l.26.26L-188.02,737.43h0ZM-186.16,739.29l-.26-.26L544.4,8.2l.26.26L-186.16,739.29h0ZM-184.31,741.14l-.26-.26L546.26,10.05l.26.26L-184.31,741.14h0ZM-182.46,742.99l-.26-.26L548.11,11.91l.26.26L-182.46,742.99h0ZM-180.6,744.85l-.26-.26L549.96,13.76l.26.26L-180.6,744.85h0ZM-178.75,746.7l-.26-.26L551.82,15.61l.26.26L-178.75,746.7h0ZM-176.89,748.56l-.26-.26L553.67,17.47l.26.26L-176.89,748.56h0ZM-175.04,750.41l-.26-.26L555.53,19.32l.26.26L-175.04,750.41h0ZM-173.19,752.27l-.26-.26L557.38,21.18l.26.26L-173.19,752.27h0ZM-171.33,754.12l-.26-.26L559.24,23.03l.26.26L-171.33,754.12h0ZM-169.48,755.97l-.26-.26L561.09,24.89l.26.26L-169.48,755.97h0ZM-167.62,757.83l-.26-.26L562.94,26.74l.26.26L-167.62,757.83h0ZM-165.77,759.68l-.26-.26L564.8,28.59l.26.26L-165.77,759.68h0ZM-163.91,761.54l-.26-.26L566.65,30.45l.26.26L-163.91,761.54h0ZM-162.06,763.39l-.26-.26L568.51,32.3l.26.26L-162.06,763.39h0ZM-160.21,765.24l-.26-.26L570.36,34.16l.26.26L-160.21,765.24h0ZM-158.35,767.1l-.26-.26L572.22,36.01l.26.26L-158.35,767.1h0ZM-156.5,768.95l-.26-.26L574.07,37.86l.26.26L-156.5,768.95h0ZM-154.64,770.81l-.26-.26L575.92,39.72l.26.26L-154.64,770.81h0ZM-152.79,772.66l-.26-.26L577.78,41.57l.26.26L-152.79,772.66h0ZM-150.93,774.52l-.26-.26L579.63,43.43l.26.26L-150.93,774.52h0ZM-149.08,776.37l-.26-.26L581.49,45.28l.26.26L-149.08,776.37h0ZM-147.23,778.23l-.26-.26L583.34,47.14l.26.26L-147.23,778.23h0ZM-145.37,780.08l-.26-.26L585.19,48.99l.26.26L-145.37,780.08h0ZM-143.52,781.93l-.26-.26L587.05,50.84l.26.26L-143.52,781.93h0ZM-141.66,783.79l-.26-.26L588.9,52.7l.26.26L-141.66,783.79h0ZM-139.81,785.64l-.26-.26L590.76,54.55l.26.26L-139.81,785.64h0ZM-137.96,787.5l-.26-.26L592.61,56.41l.26.26L-137.96,787.5h0ZM-136.1,789.35l-.26-.26L594.47,58.26l.26.26L-136.1,789.35h0ZM-134.25,791.2l-.26-.26L596.32,60.12l.26.26L-134.25,791.2h0ZM-132.39,793.06l-.26-.26L598.18,61.97l.26.26L-132.39,793.06h0ZM-130.54,794.91l-.26-.26L600.03,63.82l.26.26L-130.54,794.91h0ZM-128.68,796.77l-.26-.26L601.88,65.68l.26.26L-128.68,796.77h0ZM-126.83,798.62l-.26-.26L603.74,67.53l.26.26L-126.83,798.62h0ZM-124.98,800.47l-.26-.26L605.59,69.39l.26.26L-124.98,800.47h0ZM-123.12,802.33l-.26-.26L607.45,71.24l.26.26L-123.12,802.33h0ZM-121.27,804.18l-.26-.26L609.3,73.1l.26.26L-121.27,804.18h0ZM-119.41,806.04l-.26-.26L611.15,74.95l.26.26L-119.41,806.04h0ZM-117.56,807.89l-.26-.26L613.01,76.8l.26.26L-117.56,807.89h0ZM-115.7,809.75l-.26-.26L614.86,78.66l.26.26L-115.7,809.75h0ZM-113.85,811.6l-.26-.26L616.72,80.51l.26.26L-113.85,811.6h0ZM-112,813.46l-.26-.26L618.57,82.37l.26.26L-112,813.46h0ZM-110.14,815.31l-.26-.26L620.43,84.22l.26.26L-110.14,815.31h0ZM-108.29,817.16l-.26-.26L622.28,86.07l.26.26L-108.29,817.16h0ZM-106.43,819.02l-.26-.26L624.13,87.93l.26.26L-106.43,819.02h0ZM-104.58,820.87l-.26-.26L625.99,89.78l.26.26L-104.58,820.87h0ZM-102.73,822.73l-.26-.26L627.84,91.64l.26.26L-102.73,822.73h0ZM-100.87,824.58l-.26-.26L629.7,93.49l.26.26L-100.87,824.58h0ZM-99.02,826.43l-.26-.26L631.55,95.35l.26.26L-99.02,826.43h0ZM-97.16,828.29l-.26-.26L633.41,97.2l.26.26L-97.16,828.29h0ZM-95.31,830.14l-.26-.26L635.26,99.05l.26.26L-95.31,830.14h0ZM-93.45,832l-.26-.26L637.11,100.91l.26.26L-93.45,832h0ZM-91.6,833.85l-.26-.26L638.97,102.76l.26.26L-91.6,833.85h0ZM-89.75,835.71l-.26-.26L640.82,104.62l.26.26L-89.75,835.71h0ZM-87.89,837.56l-.26-.26L642.67,106.47l.26.26L-87.89,837.56h0ZM-86.04,839.41l-.26-.26L644.53,108.33l.26.26L-86.04,839.41h0ZM-84.18,841.27l-.26-.26L646.38,110.18l.26.26L-84.18,841.27h0ZM-82.33,843.12l-.26-.26L648.24,112.03l.26.26L-82.33,843.12h0ZM-80.47,844.98l-.26-.26L650.09,113.89l.26.26L-80.47,844.98h0ZM-78.62,846.83l-.26-.26L651.95,115.74l.26.26L-78.62,846.83h0ZM-76.77,848.69l-.26-.26L653.8,117.6l.26.26L-76.77,848.69h0ZM-74.91,850.54l-.26-.26L655.66,119.45l.26.26L-74.91,850.54h0ZM-73.06,852.39l-.26-.26L657.51,121.3l.26.26L-73.06,852.39h0ZM-71.2,854.25l-.26-.26L659.36,123.16l.26.26L-71.2,854.25h0ZM-69.35,856.1l-.26-.26L661.22,125.01l.26.26L-69.35,856.1h0ZM-67.5,857.96l-.26-.26L663.07,126.87l.26.26L-67.5,857.96h0ZM-65.64,859.81l-.26-.26L664.93,128.72l.26.26L-65.64,859.81h0ZM-63.79,861.66l-.26-.26L666.78,130.58l.26.26L-63.79,861.66h0ZM-61.93,863.52l-.26-.26L668.63,132.43l.26.26L-61.93,863.52h0ZM-60.08,865.37l-.26-.26L670.49,134.28l.26.26L-60.08,865.37h0ZM-58.22,867.23l-.26-.26L672.34,136.14l.26.26L-58.22,867.23h0ZM-56.37,869.08l-.26-.26L674.2,137.99l.26.26L-56.37,869.08h0ZM-54.52,870.94l-.26-.26L676.05,139.85l.26.26L-54.52,870.94h0ZM-52.66,872.79l-.26-.26L677.91,141.7l.26.26L-52.66,872.79h0ZM-50.81,874.65l-.26-.26L679.76,143.56l.26.26L-50.81,874.65h0ZM-48.95,876.5l-.26-.26L681.61,145.41l.26.26L-48.95,876.5h0ZM-47.1,878.35l-.26-.26L683.47,147.26l.26.26L-47.1,878.35h0ZM-45.24,880.21l-.26-.26L685.32,149.12l.26.26L-45.24,880.21h0ZM-43.39,882.06l-.26-.26L687.18,150.97l.26.26L-43.39,882.06h0ZM-41.54,883.92l-.26-.26L689.03,152.83l.26.26L-41.54,883.92h0ZM-39.68,885.77l-.26-.26L690.89,154.68l.26.26L-39.68,885.77h0ZM-37.83,887.62l-.26-.26L692.74,156.53l.26.26L-37.83,887.62h0ZM-35.97,889.48l-.26-.26L694.59,158.39l.26.26L-35.97,889.48h0ZM-34.12,891.33l-.26-.26L696.45,160.24l.26.26L-34.12,891.33h0ZM-32.26,893.19l-.26-.26L698.3,162.1l.26.26L-32.26,893.19h0ZM-30.41,895.04l-.26-.26L700.16,163.95l.26.26L-30.41,895.04h0ZM-28.56,896.89l-.26-.26L702.01,165.81l.26.26L-28.56,896.89h0ZM-26.7,898.75l-.26-.26L703.86,167.66l.26.26L-26.7,898.75h0ZM-24.85,900.6l-.26-.26L705.72,169.51l.26.26L-24.85,900.6h0ZM-22.99,902.46l-.26-.26L707.57,171.37l.26.26L-22.99,902.46h0ZM-21.14,904.31l-.26-.26L709.43,173.22l.26.26L-21.14,904.31h0ZM-19.29,906.17l-.26-.26L711.28,175.08l.26.26L-19.29,906.17h0ZM-17.43,908.02l-.26-.26L713.14,176.93l.26.26L-17.43,908.02h0ZM-15.58,909.88l-.26-.26L714.99,178.79l.26.26L-15.58,909.88h0ZM-13.72,911.73l-.26-.26L716.84,180.64l.26.26L-13.72,911.73h0ZM-11.87,913.58l-.26-.26L718.7,182.49l.26.26L-11.87,913.58h0ZM-10.01,915.44l-.26-.26L720.55,184.35l.26.26L-10.01,915.44h0ZM-8.16,917.29l-.26-.26L722.41,186.2l.26.26L-8.16,917.29h0ZM-6.31,919.14l-.26-.26L724.26,188.06l.26.26L-6.31,919.14h0ZM-4.45,921l-.26-.26L726.12,189.91l.26.26L-4.45,921h0ZM-2.6,922.85l-.26-.26L727.97,191.76l.26.26L-2.6,922.85h0ZM-.74,924.71l-.26-.26L729.82,193.62l.26.26L-.74,924.71h0ZM1.11,926.56l-.26-.26L731.68,195.47l.26.26L1.11,926.56h0ZM2.97,928.42l-.26-.26L733.53,197.33l.26.26L2.97,928.42h0ZM4.82,930.27l-.26-.26L735.39,199.18l.26.26L4.82,930.27h0ZM6.67,932.13l-.26-.26L737.24,201.04l.26.26L6.67,932.13h0ZM8.53,933.98l-.26-.26L739.09,202.89l.26.26L8.53,933.98h0ZM10.38,935.83l-.26-.26L740.95,204.74l.26.26L10.38,935.83h0ZM12.24,937.69l-.26-.26L742.8,206.6l.26.26L12.24,937.69h0ZM14.09,939.54l-.26-.26L744.66,208.45l.26.26L14.09,939.54h0ZM15.94,941.4l-.26-.26L746.51,210.31l.26.26L15.94,941.4h0ZM17.8,943.25l-.26-.26L748.37,212.16l.26.26L17.8,943.25h0ZM19.65,945.1l-.26-.26L750.22,214.02l.26.26L19.65,945.1h0ZM21.51,946.96l-.26-.26L752.08,215.87l.26.26L21.51,946.96h0ZM23.36,948.81l-.26-.26L753.93,217.73l.26.26L23.36,948.81h0ZM25.22,950.67l-.26-.26L755.78,219.58l.26.26L25.22,950.67h0ZM27.07,952.52l-.26-.26L757.64,221.43l.26.26L27.07,952.52h0ZM28.93,954.38l-.26-.26L759.49,223.29l.26.26L28.93,954.38h0ZM30.78,956.23l-.26-.26L761.34,225.14l.26.26L30.78,956.23h0ZM32.63,958.08l-.26-.26L763.2,226.99l.26.26L32.63,958.08h0ZM34.49,959.94l-.26-.26L765.05,228.85l.26.26L34.49,959.94h0ZM36.34,961.79l-.26-.26L766.91,230.7l.26.26L36.34,961.79h0ZM38.2,963.65l-.26-.26L768.76,232.56l.26.26L38.2,963.65h0ZM40.05,965.5l-.26-.26L770.62,234.41l.26.26L40.05,965.5h0ZM41.9,967.36l-.26-.26L772.47,236.27l.26.26L41.9,967.36h0ZM43.76,969.21l-.26-.26L774.33,238.12l.26.26L43.76,969.21h0ZM45.61,971.06l-.26-.26L776.18,239.98l.26.26L45.61,971.06h0ZM47.47,972.92l-.26-.26L778.03,241.83l.26.26L47.47,972.92h0ZM49.32,974.77l-.26-.26L779.89,243.68l.26.26L49.32,974.77h0ZM51.17,976.63l-.26-.26L781.74,245.54l.26.26L51.17,976.63h0ZM53.03,978.48l-.26-.26L783.6,247.39l.26.26L53.03,978.48h0ZM54.88,980.33l-.26-.26L785.45,249.25l.26.26L54.88,980.33h0ZM56.74,982.19l-.26-.26L787.31,251.1l.26.26L56.74,982.19h0ZM58.59,984.04l-.26-.26L789.16,252.95l.26.26L58.59,984.04h0ZM60.45,985.9l-.26-.26L791.01,254.81l.26.26L60.45,985.9h0ZM62.3,987.75l-.26-.26L792.87,256.66l.26.26L62.3,987.75h0ZM64.15,989.61l-.26-.26L794.72,258.52l.26.26L64.15,989.61h0ZM66.01,991.46l-.26-.26L796.58,260.37l.26.26L66.01,991.46h0ZM67.86,993.31l-.26-.26L798.43,262.22l.26.26L67.86,993.31h0Z"/>
  </g>
</svg>